<svg width="24" height="20" viewBox="0 0 24 20" fill="none" xmlns="http://www.w3.org/2000/svg">
<g clip-path="url(#clip0_4091_4672)">
<path fill-rule="evenodd" clip-rule="evenodd" d="M4.98488 0C3.61546 0 2.60217 1.19643 2.64753 2.49396C2.69105 3.74053 2.63451 5.35498 2.22732 6.6716C1.81892 7.99207 1.1282 8.82854 0 8.93594L0 10.1484C1.1282 10.2558 1.81892 11.0923 2.22732 12.4127C2.63451 13.7294 2.69105 15.3438 2.64753 16.5904C2.60217 17.8877 3.61546 19.0843 4.98508 19.0843H19.0169C20.3864 19.0843 21.3995 17.8879 21.3541 16.5904C21.3106 15.3438 21.3671 13.7294 21.7743 12.4127C22.1829 11.0923 22.8718 10.2558 24 10.1484V8.93594C22.8718 8.82854 22.1829 7.99207 21.7743 6.6716C21.3671 5.35519 21.3106 3.74053 21.3541 2.49396C21.3995 1.19663 20.3864 0 19.0169 0L4.98468 0L4.98488 0ZM16.2712 11.7476C16.2712 13.5342 14.9361 14.6178 12.7206 14.6178H8.94915C8.84127 14.6178 8.7378 14.575 8.66152 14.4989C8.58523 14.4227 8.54237 14.3194 8.54237 14.2117V4.8726C8.54237 4.76491 8.58523 4.66163 8.66152 4.58548C8.7378 4.50933 8.84127 4.46655 8.94915 4.46655H12.6991C14.5464 4.46655 15.7588 5.46543 15.7588 6.99908C15.7588 8.07552 14.9433 9.03928 13.9041 9.20799V9.26423C15.3187 9.41914 16.2712 10.3969 16.2712 11.7476ZM12.3094 5.75372H10.1589V8.7857H11.9701C13.3702 8.7857 14.1423 8.22291 14.1423 7.21693C14.1423 6.27428 13.4784 5.75372 12.3094 5.75372ZM10.1589 9.98882V13.3302H12.3885C13.8462 13.3302 14.6184 12.7463 14.6184 11.649C14.6184 10.5514 13.8246 9.98862 12.2947 9.98862H10.1589V9.98882Z" fill="#0AAD0A"/>
</g>
<defs>
<clipPath id="clip0_4091_4672">
<rect width="24" height="19.0843" fill="white"/>
</clipPath>
</defs>
</svg>
